<svg xmlns="http://www.w3.org/2000/svg" width="894" height="208" fill="none"><path fill="#fff" d="M65.174 154.644a4 4 0 0 0 4 4h54.825a4 4 0 0 1 4 4V204a4 4 0 0 1-4 4H4a4 4 0 0 1-4-4V4a4 4 0 0 1 4-4h57.174a4 4 0 0 1 4 4v150.644ZM894 204a4 4 0 0 1-4 4h-59.021a4.001 4.001 0 0 1-3.339-1.797l-60.465-91.665c-2.185-3.312-7.339-1.765-7.339 2.203V204a4 4 0 0 1-4 4h-57.174a4 4 0 0 1-4-4V4a4 4 0 0 1 4-4h59.001c1.355 0 2.618.686 3.356 1.823l60.451 93.188c2.168 3.342 7.356 1.807 7.356-2.177V4a4 4 0 0 1 4-4H890a4 4 0 0 1 4 4v200Z"/></svg>