<svg xmlns="http://www.w3.org/2000/svg" width="318" height="23" fill="none"><path fill="#fff" d="M30.84.94 25.35 22h-6.21L15.78 8.14 12.3 22H6.09L.75.94h5.49l3.03 15.33L13.02.94h5.64l3.6 15.33L25.32.94h5.52ZM51.653.94V22h-5.13v-8.67h-7.98V22h-5.13V.94h5.13v8.25h7.98V.94h5.13ZM73.416.94l-7.29 14.1V22h-5.13v-6.96L53.706.94h5.82l4.08 8.82 4.05-8.82h5.76ZM94.05 22l-7.08-9.3V22h-5.13V.94h5.13v9.24L93.99.94h6.03l-8.16 10.32L100.32 22h-6.27ZM107.888.94V22h-5.13V.94h5.13ZM116.736 18.04h6.72V22h-11.85V.94h5.13v17.1ZM131.033 18.04h6.72V22h-11.85V.94h5.13v17.1ZM145.33 5.05v4.26h6.87v3.96h-6.87v4.62h7.77V22h-12.9V.94h12.9v4.11h-7.77ZM164.32.94c2.22 0 4.16.44 5.82 1.32 1.66.88 2.94 2.12 3.84 3.72.92 1.58 1.38 3.41 1.38 5.49 0 2.06-.46 3.89-1.38 5.49-.9 1.6-2.19 2.84-3.87 3.72-1.66.88-3.59 1.32-5.79 1.32h-7.89V.94h7.89Zm-.33 16.62c1.94 0 3.45-.53 4.53-1.59s1.62-2.56 1.62-4.5-.54-3.45-1.62-4.53-2.59-1.62-4.53-1.62h-2.43v12.24h2.43ZM197.695 18.28h-7.86l-1.26 3.72h-5.37l7.62-21.06h5.94l7.62 21.06h-5.43l-1.26-3.72Zm-1.32-3.96-2.61-7.71-2.58 7.71h5.19ZM225.544 22h-5.13l-8.58-12.99V22h-5.13V.94h5.13l8.58 13.05V.94h5.13V22ZM234.392.94V22h-5.13V.94h5.13ZM261.96.94V22h-5.13V9.37L252.12 22h-4.14l-4.74-12.66V22h-5.13V.94h6.06l5.91 14.58L255.93.94h6.03ZM278.759 18.28h-7.86l-1.26 3.72h-5.37l7.62-21.06h5.94l7.62 21.06h-5.43l-1.26-3.72Zm-1.32-3.96-2.61-7.71-2.58 7.71h5.19ZM292.898 18.04h6.72V22h-11.85V.94h5.13v17.1ZM309.685 22.21c-1.54 0-2.92-.25-4.14-.75-1.22-.5-2.2-1.24-2.94-2.22-.72-.98-1.1-2.16-1.14-3.54h5.46c.08.78.35 1.38.81 1.8.46.4 1.06.6 1.8.6.76 0 1.36-.17 1.8-.51.44-.36.66-.85.66-1.47 0-.52-.18-.95-.54-1.29-.34-.34-.77-.62-1.29-.84-.5-.22-1.22-.47-2.16-.75-1.36-.42-2.47-.84-3.33-1.26-.86-.42-1.6-1.04-2.22-1.86-.62-.82-.93-1.89-.93-3.21 0-1.96.71-3.49 2.13-4.59 1.42-1.12 3.27-1.68 5.55-1.68 2.32 0 4.19.56 5.61 1.68 1.42 1.1 2.18 2.64 2.28 4.62h-5.55c-.04-.68-.29-1.21-.75-1.59-.46-.4-1.05-.6-1.77-.6-.62 0-1.12.17-1.5.51-.38.32-.57.79-.57 1.41 0 .68.32 1.21.96 1.59.64.38 1.64.79 3 1.23 1.36.46 2.46.9 3.3 1.32.86.42 1.6 1.03 2.22 1.83.62.8.93 1.83.93 3.09 0 1.2-.31 2.29-.93 3.27-.6.98-1.48 1.76-2.64 2.34-1.16.58-2.53.87-4.11.87Z"/></svg>